<?xml version="1.0" encoding="UTF-8" standalone="no"?>
<svg
   id="Layer_1"
   data-name="Layer 1"
   viewBox="0 0 128 128"
   version="1.1"
   sodipodi:docname="robot_sum.svg"
   inkscape:version="1.3.2 (091e20e, 2023-11-25, custom)"
   inkscape:export-filename="48px-robot_sum.png"
   inkscape:export-xdpi="36"
   inkscape:export-ydpi="36"
   xmlns:inkscape="http://www.inkscape.org/namespaces/inkscape"
   xmlns:sodipodi="http://sodipodi.sourceforge.net/DTD/sodipodi-0.dtd"
   xmlns:xlink="http://www.w3.org/1999/xlink"
   xmlns="http://www.w3.org/2000/svg"
   xmlns:svg="http://www.w3.org/2000/svg"
   xmlns:rdf="http://www.w3.org/1999/02/22-rdf-syntax-ns#"
   xmlns:cc="http://creativecommons.org/ns#"
   xmlns:dc="http://purl.org/dc/elements/1.1/">
  <metadata
     id="metadata91">
    <rdf:RDF>
      <cc:Work
         rdf:about="">
        <dc:format>image/svg+xml</dc:format>
        <dc:type
           rdf:resource="http://purl.org/dc/dcmitype/StillImage" />
      </cc:Work>
    </rdf:RDF>
  </metadata>
  <sodipodi:namedview
     pagecolor="#ffffff"
     bordercolor="#666666"
     borderopacity="1"
     objecttolerance="10"
     gridtolerance="10"
     guidetolerance="10"
     inkscape:pageopacity="0"
     inkscape:pageshadow="2"
     inkscape:window-width="1920"
     inkscape:window-height="1111"
     id="namedview89"
     showgrid="false"
     inkscape:zoom="7.375"
     inkscape:cx="71.322034"
     inkscape:cy="51.322034"
     inkscape:window-x="-9"
     inkscape:window-y="-9"
     inkscape:window-maximized="1"
     inkscape:current-layer="Layer_1"
     inkscape:showpageshadow="2"
     inkscape:pagecheckerboard="0"
     inkscape:deskcolor="#d1d1d1" />
  <defs
     id="defs4">
    <style
       id="style2">.cls-1{fill:#8c8880;}.cls-2{fill:#666054;}.cls-3{fill:#5b5446;}.cls-4{fill:#544c3e;}.cls-10,.cls-17,.cls-20,.cls-23,.cls-5,.cls-7{fill:none;}.cls-10,.cls-17,.cls-20,.cls-23,.cls-5{stroke:#333;}.cls-10,.cls-17,.cls-5,.cls-7{stroke-linejoin:round;}.cls-23,.cls-5{stroke-width:4px;}.cls-6{fill:#959fa0;}.cls-7{stroke:#5d6268;}.cls-17,.cls-20,.cls-7{stroke-width:2px;}.cls-8{fill:#626b6b;}.cls-9{fill:#516060;}.cls-10{stroke-width:3px;}.cls-11{fill:#acb6b7;}.cls-12{fill:#90a0a3;}.cls-13{fill:#7f9193;}.cls-14{fill:#b5c1c6;}.cls-15{fill:#a1acb2;}.cls-16{fill:#333;}.cls-18{fill:#ccc;}.cls-19{fill:#aaa;}.cls-20,.cls-23{stroke-miterlimit:10;}.cls-21{fill:#708eba;}.cls-22{fill:#82a6d1;}</style>
    <radialGradient
       cx="-6"
       cy="37.75"
       fx="-6"
       fy="37.75"
       gradientTransform="matrix(3.4853679,0,0,0.50270025,85.725773,97.633215)"
       gradientUnits="userSpaceOnUse"
       id="radialGradient2311"
       r="14"
       xlink:href="#lg2" />
    <linearGradient
       id="lg2">
      <stop
         offset="0"
         id="stop2" />
      <stop
         stop-opacity="0"
         offset="1"
         id="stop4" />
    </linearGradient>
    <linearGradient
       xlink:href="#a"
       id="e"
       x1="22.82"
       x2="12.85"
       y1="28.829"
       y2="12.239"
       gradientTransform="matrix(0.94698,0,0,0.48732,-89.554603,65.131584)"
       gradientUnits="userSpaceOnUse" />
    <linearGradient
       id="a">
      <stop
         offset="0"
         stop-color="#f5a108"
         stop-opacity="0"
         id="stop5" />
      <stop
         offset="1"
         stop-color="#fefdc3"
         stop-opacity=".743"
         id="stop6" />
    </linearGradient>
    <linearGradient
       xlink:href="#a"
       id="f"
       x1="11.355"
       x2="6.3579998"
       y1="32.757"
       y2="6.0999999"
       gradientTransform="matrix(2.0123,0,0,1.07997,-92.454603,59.741584)"
       gradientUnits="userSpaceOnUse" />
    <linearGradient
       xlink:href="#b"
       id="g"
       x1="34.798"
       x2="17.445"
       y1="29.173"
       y2="-6.8889999"
       gradientTransform="matrix(0.9034,0,0,0.9034,-90.954603,63.259584)"
       gradientUnits="userSpaceOnUse" />
    <linearGradient
       id="b">
      <stop
         offset="0"
         stop-color="#fff"
         id="stop3" />
      <stop
         offset="1"
         stop-color="#fff"
         stop-opacity="0"
         id="stop4-3" />
    </linearGradient>
  </defs>
  <title
     id="title6">robot-02</title>
  <path
     class="cls-1"
     d="M99.08,92.54C88,89.79,82.66,88,64,88a130.41,130.41,0,0,0-35,4.56c-6.86,1.72-5.85,1.89-9,11.43a103.78,103.78,0,0,0,44,10c24.18,0,43.56-9.63,44-10C106,98.84,105.29,94.1,99.08,92.54Z"
     id="path8" />
  <path
     class="cls-2"
     d="M41.77,89.78l24.15,24.15c23.27-.49,41.65-9.6,42.08-10-2-5.14-2.71-9.88-8.92-11.44C88,89.79,82.66,88,64,88A126.42,126.42,0,0,0,41.77,89.78Z"
     id="path10" />
  <path
     class="cls-2"
     d="M99.08,98.57C88,95.81,82.66,94,64,94a130.38,130.38,0,0,0-35,4.57c-5.28,1.32-5.9,1.75-7.36,6.22A105.52,105.52,0,0,0,64,114a107.2,107.2,0,0,0,42.11-9.06C104.86,102,103.13,99.58,99.08,98.57Z"
     id="path12" />
  <path
     class="cls-3"
     d="M99.08,98.57C88,95.81,82.66,94,64,94a134.25,134.25,0,0,0-17,1l18.92,18.92a108.71,108.71,0,0,0,38.56-8.31l.06,0,1.22-.53L106,105l.08,0C104.85,102,103.13,99.58,99.08,98.57Z"
     id="path14" />
  <path
     class="cls-4"
     d="M78.79,90.13a14.17,14.17,0,0,0-.09-1.6C74.77,88.17,70.11,88,64,88a135.25,135.25,0,0,0-14.93.76c0,.46-.07.92-.07,1.39a14.9,14.9,0,0,0,29.79,0Z"
     id="path16" />
  <path
     class="cls-5"
     d="M99.08,92.54C88,89.79,82.66,88,64,88a130.41,130.41,0,0,0-35,4.56c-6.86,1.72-5.85,1.89-9,11.43a103.78,103.78,0,0,0,44,10c24.18,0,43.56-9.63,44-10C106,98.84,105.29,94.1,99.08,92.54Z"
     id="path18" />
  <path
     class="cls-6"
     d="M54,80H74a0,0,0,0,1,0,0V90a10,10,0,0,1-10,10h0A10,10,0,0,1,54,90V80A0,0,0,0,1,54,80Z"
     id="path20" />
  <path
     class="cls-7"
     d="M74,84c-2.7,2.67-17.3,2.67-20,0"
     id="path22" />
  <path
     class="cls-7"
     d="M74,88c-2.7,2.67-17.3,2.67-20,0"
     id="path24" />
  <path
     class="cls-7"
     d="M74,92c-2.7,2.67-17.3,2.67-20,0"
     id="path26" />
  <path
     class="cls-5"
     d="M54,80H74a0,0,0,0,1,0,0V90a10,10,0,0,1-10,10h0A10,10,0,0,1,54,90V80A0,0,0,0,1,54,80Z"
     id="path28" />
  <ellipse
     class="cls-8"
     cx="64"
     cy="76.69"
     rx="17.69"
     ry="8.45"
     id="ellipse30" />
  <path
     class="cls-9"
     d="M64,68.24c-9.77,0-17.69,3.78-17.69,8.45,0,2.21,1.79,4.22,4.71,5.72A12.81,12.81,0,0,0,54.94,81l2.55-1.42a13.35,13.35,0,0,1,13,0L73.06,81A12.81,12.81,0,0,0,77,82.41c2.92-1.5,4.71-3.51,4.71-5.72C81.69,72,73.77,68.24,64,68.24Z"
     id="path32" />
  <ellipse
     class="cls-5"
     cx="64"
     cy="77"
     rx="18"
     ry="9"
     id="ellipse34" />
  <path
     class="cls-1"
     d="M45.24,105.49H88.8a5.47,5.47,0,0,1,2.32.52,5.43,5.43,0,0,0-5.34-4.45H42.22A5.43,5.43,0,0,0,36.79,107v2.94c1,.26,2,.51,3,.75A5.43,5.43,0,0,1,45.24,105.49Z"
     id="path36" />
  <path
     class="cls-1"
     d="M64,114a103.56,103.56,0,0,0,26-3.48V106a4,4,0,0,0-4-4H42a4,4,0,0,0-4,4v4.51A102.71,102.71,0,0,0,64,114Z"
     id="path38" />
  <path
     class="cls-2"
     d="M64,114a103.56,103.56,0,0,0,26-3.48V106H44a2,2,0,0,0-2,2v3.48A101.46,101.46,0,0,0,64,114Z"
     id="path40" />
  <path
     class="cls-10"
     d="M64,114a103.56,103.56,0,0,0,26-3.48V106a4,4,0,0,0-4-4H42a4,4,0,0,0-4,4v4.51A102.71,102.71,0,0,0,64,114Z"
     id="path42" />
  <path
     class="cls-11"
     d="M96,78H79a9.85,9.85,0,0,1-5.46-1.66l-4.07-2.72a9.79,9.79,0,0,0-10.9,0l-4.07,2.72A9.85,9.85,0,0,1,49,78H32a8,8,0,0,1-8-8V40a8,8,0,0,1,8-8H96a8,8,0,0,1,8,8V70A8,8,0,0,1,96,78Z"
     id="path44" />
  <path
     class="cls-12"
     d="M34,38a4,4,0,0,0-4,4V76a7.42,7.42,0,0,0,.22,1.78A7.42,7.42,0,0,0,32,78H49a9.85,9.85,0,0,0,5.46-1.66l4.06-2.72a9.82,9.82,0,0,1,10.92,0l4.06,2.72A9.85,9.85,0,0,0,79,78H96a8,8,0,0,0,8-8V40a7.42,7.42,0,0,0-.22-1.78A7.42,7.42,0,0,0,102,38Z"
     id="path46" />
  <line
     class="cls-5"
     x1="64"
     y1="26"
     x2="64"
     y2="31.97"
     id="line76" />
  <path
     class="cls-5"
     d="M96,78H79a9.85,9.85,0,0,1-5.46-1.66l-4.07-2.72a9.79,9.79,0,0,0-10.9,0l-4.07,2.72A9.85,9.85,0,0,1,49,78H32a8,8,0,0,1-8-8V40a8,8,0,0,1,8-8H96a8,8,0,0,1,8,8V70A8,8,0,0,1,96,78Z"
     id="path78" />
  <line
     class="cls-20"
     x1="60"
     y1="80"
     x2="68"
     y2="80"
     id="line80" />
  <circle
     class="cls-21"
     cx="64"
     cy="20"
     r="6"
     id="circle82" />
  <path
     class="cls-22"
     d="M61,22.81a6,6,0,0,1,8.29-5.55,6,6,0,1,0-7.6,8.28A6,6,0,0,1,61,22.81Z"
     id="path84" />
  <circle
     class="cls-23"
     cx="64"
     cy="20"
     r="6"
     id="circle86" />
  <path
     inkscape:connector-curvature="0"
     d="m 113.60872,116.61016 a 48.795157,7.0378086 0 1 1 -97.590314,0 48.795157,7.0378081 0 1 1 97.590314,0 z"
     id="path2303"
     style="color:#000000;display:inline;overflow:visible;visibility:visible;opacity:0.48453608;fill:url(#radialGradient2311);fill-opacity:1;fill-rule:evenodd;stroke:none;stroke-width:2.55756927;stroke-linecap:round;stroke-linejoin:round;stroke-miterlimit:4;stroke-dasharray:none;stroke-dashoffset:0;stroke-opacity:1;marker:none;marker-start:none;marker-mid:none;marker-end:none" />
  <rect
     style="fill:#7f9193;fill-opacity:1;stroke:none;stroke-width:0.75"
     id="rect2"
     width="28.140453"
     height="32.902435"
     x="70"
     y="38"
     ry="4.0269141" />
  <path
     d="m 73.74221,65.754507 c 0.231398,0.555581 0.774336,0.917464 1.375789,0.917464 H 93.99139 c 0.823689,0 1.490176,-0.666893 1.490176,-1.49037 V 60.71189 c 0,-0.82369 -0.666895,-1.490177 -1.490176,-1.490177 -0.823681,0 -1.490381,0.666896 -1.490381,1.490177 v 2.979739 H 78.69818 l 6.82496,-6.870223 c 0.546409,-0.550281 0.579839,-1.427176 0.07606,-2.017618 l -7.250678,-8.495572 h 14.153516 v 0.993315 c 0,0.82368 0.666905,1.48997 1.490381,1.48997 0.823681,0 1.490177,-0.666903 1.490177,-1.48997 v -2.483286 c 0,-0.823691 -0.666896,-1.490177 -1.490177,-1.490177 H 75.11903 c -0.58127,0 -1.10953,0.338238 -1.352962,0.866293 -0.243431,0.528055 -0.157397,1.149282 0.219581,1.591305 l 8.457858,9.90949 -8.38161,8.436647 c -0.42427,0.426937 -0.549861,1.066916 -0.318871,1.622704"
     fill="#ede6fc"
     id="path2"
     style="fill:#2e3436;fill-opacity:1;stroke-width:0.203882" />
  <rect
     style="fill:#7f9193;fill-opacity:1;stroke:none;stroke-width:0.75"
     id="rect1"
     width="28.140453"
     height="32.902435"
     x="30"
     y="38"
     ry="4.0269141" />
  <g
     id="g1"
     transform="matrix(0.63101145,0,0,0.63101145,87.764552,2.0362273)">
    <path
       fill="#d4572d"
       fill-rule="evenodd"
       d="m -71.027629,97.390537 c 0.05757,-0.08629 0.996774,1.111791 0.996774,1.111791 4.11807,-4.480684 14.628923,-12.852623 17.496233,-19.834828 -5.798549,6.431118 -15.27266,16.777409 -18.493007,18.723037 z"
       id="path7" />
    <path
       fill="url(#e)"
       fill-rule="evenodd"
       d="m -78.123968,68.565982 c -4.798286,-0.236179 -7.033671,2.846237 -8.24284,5.778507 -1.19995,3.861415 0.496273,11.154721 8.808568,10.599877 4.741292,0 6.625787,-4.862255 9.121104,-6.12447 2.267775,-0.857459 2.446258,-0.934202 4.842198,-0.934202 3.329611,0 9.350819,-2.409661 9.35082,-4.800605 -1.023444,-1.918588 -3.740552,-5.335296 -8.733413,-4.752958 -3.178158,0.369895 -6.184885,2.641668 -6.970285,3.772109 -1.923967,-1.69696 -4.380581,-3.538258 -8.176152,-3.538258 z"
       id="path8-3"
       style="fill:url(#e)" />
    <path
       fill="#c71807"
       fill-rule="evenodd"
       stroke="#820000"
       d="m -69.364655,70.0848 c 8.303023,-8.303025 19.713324,-0.650092 19.638269,7.224278 -0.06862,7.198544 -5.554934,10.646017 -19.338048,23.450072 -14.426769,-11.911435 -19.509838,-14.658257 -19.434782,-23.19909 0.07506,-8.841056 9.843234,-15.476309 19.134561,-7.47526 z"
       id="path9" />
    <path
       fill="url(#f)"
       fill-rule="evenodd"
       d="m -88.21141,77.270203 c -0.21799,7.179938 0.794642,6.042352 2.624274,8.317024 1.798688,2.236201 9.641911,0.82876 16.682247,-5.809313 7.124426,-6.71736 14.386581,-2.915256 17.906885,-6.655394 -2.622496,-4.496832 -10.807625,-9.945299 -18.343191,-2.39523 -9.657023,-8.727166 -18.652225,-0.716875 -18.870215,6.542913 z"
       opacity="0.625"
       id="path10-8"
       style="fill:url(#f)" />
    <path
       fill="none"
       stroke="url(#g)"
       d="m -69.267579,71.330728 c 7.894598,-8.533401 18.683862,-1.404112 18.613941,5.931463 -0.06392,6.705991 -5.574093,10.396674 -18.414111,22.324626 -13.439633,-11.096409 -18.574148,-14.054533 -18.504228,-22.010967 0.06992,-8.236116 9.648821,-14.736759 18.304398,-6.245122 z"
       opacity="0.392"
       id="path11"
       style="stroke:url(#g)" />
  </g>
</svg>
